<svg aria-hidden="true" style="position: absolute; width: 0; height: 0; overflow: hidden;" version="1.1" xmlns="http://www.w3.org/2000/svg" xmlns:xlink="http://www.w3.org/1999/xlink">
<defs>
<symbol id="facebook1" viewBox="0 0 32 32">
<path fill="#1877f2" style="fill: var(--color1, #1877f2)" d="M31.997 15.999c0-8.836-7.163-15.999-15.999-15.999s-15.999 7.163-15.999 15.999c0 7.985 5.851 14.604 13.499 15.804v-11.18h-4.062v-4.625h4.062v-3.525c0-4.010 2.389-6.225 6.043-6.225 1.75 0 3.581 0.313 3.581 0.313v3.937h-2.017c-1.987 0-2.607 1.233-2.607 2.498v3.001h4.437l-0.709 4.625h-3.728v11.18c7.649-1.2 13.499-7.819 13.499-15.804z"></path>
</symbol>
<symbol id="github1" viewBox="0 0 32 32">
<path d="M16 0.396c-8.84 0-16 7.164-16 16 0 7.071 4.584 13.067 10.94 15.18 0.8 0.151 1.093-0.344 1.093-0.769 0-0.38-0.013-1.387-0.020-2.72-4.451 0.965-5.389-2.147-5.389-2.147-0.728-1.847-1.78-2.34-1.78-2.34-1.449-0.992 0.112-0.972 0.112-0.972 1.607 0.112 2.451 1.648 2.451 1.648 1.427 2.447 3.745 1.74 4.66 1.331 0.144-1.035 0.556-1.74 1.013-2.14-3.553-0.4-7.288-1.776-7.288-7.907 0-1.747 0.62-3.173 1.647-4.293-0.18-0.404-0.72-2.031 0.14-4.235 0 0 1.34-0.429 4.4 1.64 1.28-0.356 2.64-0.532 4-0.54 1.36 0.008 2.72 0.184 4 0.54 3.040-2.069 4.38-1.64 4.38-1.64 0.86 2.204 0.32 3.831 0.16 4.235 1.020 1.12 1.64 2.547 1.64 4.293 0 6.147-3.74 7.5-7.3 7.893 0.56 0.48 1.080 1.461 1.080 2.96 0 2.141-0.020 3.861-0.020 4.381 0 0.42 0.28 0.92 1.1 0.76 6.401-2.099 10.981-8.099 10.981-15.159 0-8.836-7.164-16-16-16z"></path>
</symbol>
<symbol id="instagram1" viewBox="0 0 32 32">
<path fill="#e4405f" style="fill: var(--color2, #e4405f)" d="M16 0c-4.347 0-4.889 0.020-6.596 0.096-1.704 0.080-2.864 0.348-3.884 0.744-1.052 0.408-1.945 0.956-2.835 1.845s-1.439 1.781-1.845 2.835c-0.396 1.020-0.665 2.18-0.744 3.884-0.080 1.707-0.096 2.249-0.096 6.596s0.020 4.889 0.096 6.596c0.080 1.703 0.348 2.864 0.744 3.884 0.408 1.051 0.956 1.945 1.845 2.835 0.889 0.888 1.781 1.439 2.835 1.845 1.021 0.395 2.181 0.665 3.884 0.744 1.707 0.080 2.249 0.096 6.596 0.096s4.889-0.020 6.596-0.096c1.703-0.080 2.864-0.349 3.884-0.744 1.051-0.408 1.945-0.957 2.835-1.845 0.888-0.889 1.439-1.78 1.845-2.835 0.395-1.020 0.665-2.181 0.744-3.884 0.080-1.707 0.096-2.249 0.096-6.596s-0.020-4.889-0.096-6.596c-0.080-1.703-0.349-2.865-0.744-3.884-0.408-1.052-0.957-1.945-1.845-2.835-0.889-0.889-1.78-1.439-2.835-1.845-1.020-0.396-2.181-0.665-3.884-0.744-1.707-0.080-2.249-0.096-6.596-0.096zM16 2.88c4.271 0 4.78 0.021 6.467 0.095 1.56 0.073 2.407 0.332 2.969 0.553 0.749 0.289 1.28 0.636 1.843 1.195 0.559 0.56 0.905 1.092 1.195 1.841 0.219 0.563 0.48 1.409 0.551 2.969 0.076 1.688 0.093 2.195 0.093 6.467s-0.020 4.78-0.099 6.467c-0.081 1.56-0.341 2.407-0.561 2.969-0.299 0.749-0.639 1.28-1.199 1.843-0.559 0.559-1.099 0.905-1.84 1.195-0.56 0.219-1.42 0.48-2.98 0.551-1.699 0.076-2.199 0.093-6.479 0.093-4.281 0-4.781-0.020-6.479-0.099-1.561-0.081-2.421-0.341-2.981-0.561-0.759-0.299-1.28-0.639-1.839-1.199-0.561-0.559-0.92-1.099-1.2-1.84-0.22-0.56-0.479-1.42-0.56-2.98-0.060-1.68-0.081-2.199-0.081-6.459 0-4.261 0.021-4.781 0.081-6.481 0.081-1.56 0.34-2.419 0.56-2.979 0.28-0.76 0.639-1.28 1.2-1.841 0.559-0.559 1.080-0.919 1.839-1.197 0.56-0.221 1.401-0.481 2.961-0.561 1.7-0.060 2.2-0.080 6.479-0.080zM16 7.784c-4.54 0-8.216 3.68-8.216 8.216 0 4.54 3.68 8.216 8.216 8.216 4.54 0 8.216-3.68 8.216-8.216 0-4.54-3.68-8.216-8.216-8.216zM16 21.333c-2.947 0-5.333-2.387-5.333-5.333s2.387-5.333 5.333-5.333 5.333 2.387 5.333 5.333-2.387 5.333-5.333 5.333zM26.461 7.46c0 1.060-0.861 1.92-1.92 1.92-1.060 0-1.92-0.861-1.92-1.92s0.861-1.919 1.92-1.919c1.057-0.001 1.92 0.86 1.92 1.919z"></path>
</symbol>
<symbol id="linkedin1" viewBox="0 0 32 32">
<path fill="#0077b5" style="fill: var(--color3, #0077b5)" d="M27.263 27.269h-4.739v-7.425c0-1.771-0.036-4.049-2.469-4.049-2.471 0-2.848 1.927-2.848 3.919v7.556h-4.739v-15.269h4.552v2.081h0.061c0.636-1.2 2.183-2.467 4.493-2.467 4.801 0 5.689 3.16 5.689 7.273zM7.116 9.911c-1.525 0-2.751-1.235-2.751-2.753 0-1.517 1.227-2.751 2.751-2.751 1.52 0 2.752 1.233 2.752 2.751 0 1.519-1.233 2.753-2.752 2.753zM9.492 27.269h-4.752v-15.269h4.752zM29.633 0h-27.272c-1.305 0-2.361 1.032-2.361 2.305v27.389c0 1.275 1.056 2.305 2.361 2.305h27.268c1.304 0 2.371-1.031 2.371-2.305v-27.389c0-1.273-1.067-2.305-2.371-2.305z"></path>
</symbol>
<symbol id="telegram1" viewBox="0 0 32 32">
<path fill="#2ca5e0" style="fill: var(--color4, #2ca5e0)" d="M31.88 5.053l-4.813 22.733c-0.333 1.613-1.307 2-2.667 1.253l-7.333-5.427-3.547 3.427c-0.4 0.4-0.733 0.747-1.467 0.747-0.96 0-0.8-0.36-1.12-1.267l-2.533-8.253-7.267-2.267c-1.573-0.467-1.587-1.547 0.347-2.333l28.347-10.933c1.293-0.573 2.533 0.32 2.053 2.32z"></path>
</symbol>
<symbol id="viber" viewBox="0 0 32 32">
<path fill="#665cac" style="fill: var(--color5, #665cac)" d="M15.197 0.003c-2.567 0.035-8.089 0.456-11.179 3.287-2.293 2.28-3.095 5.641-3.188 9.804-0.080 4.147-0.173 11.933 7.333 14.055v3.227c0 0-0.051 1.293 0.803 1.56 1.053 0.333 1.653-0.665 2.653-1.732l1.867-2.107c5.133 0.427 9.067-0.559 9.52-0.705 1.040-0.333 6.908-1.081 7.868-8.869 0.987-8.041-0.48-13.108-3.12-15.401l-0.013-0.003c-0.8-0.733-4-3.067-11.16-3.093 0 0-0.528-0.033-1.384-0.021zM15.287 2.265c0.727-0.004 1.173 0.027 1.173 0.027 6.053 0.013 8.948 1.84 9.628 2.453 2.227 1.905 3.371 6.475 2.533 13.189-0.8 6.507-5.56 6.92-6.44 7.2-0.373 0.12-3.84 0.973-8.203 0.693 0 0-3.252 3.921-4.265 4.935-0.16 0.173-0.347 0.227-0.467 0.2-0.173-0.040-0.227-0.253-0.213-0.547l0.027-5.359c-6.361-1.76-5.988-8.403-5.921-11.869 0.080-3.467 0.733-6.309 2.667-8.229 2.609-2.36 7.3-2.68 9.481-2.693zM15.767 5.732c-0 0-0.001 0-0.001 0-0.22 0-0.399 0.178-0.399 0.399 0 0 0 0 0 0v0c0 0.221 0.179 0.4 0.4 0.4v0c0.043-0.001 0.093-0.001 0.143-0.001 2.034 0 3.88 0.809 5.232 2.123l-0.002-0.002c1.453 1.413 2.161 3.307 2.188 5.787 0 0.221 0.179 0.4 0.4 0.4v0-0.012c0.221 0 0.4-0.179 0.4-0.4v0c0.005-0.109 0.008-0.236 0.008-0.364 0-2.326-0.923-4.436-2.423-5.985l0.002 0.002c-1.587-1.547-3.589-2.347-5.948-2.347zM10.495 6.652c-0.054-0.008-0.116-0.013-0.18-0.013-0.236 0-0.457 0.064-0.646 0.176l0.006-0.003h-0.016c-0.547 0.32-1.051 0.72-1.531 1.253-0.36 0.427-0.561 0.852-0.615 1.265-0.009 0.064-0.014 0.137-0.014 0.212 0 0.182 0.029 0.357 0.084 0.521l-0.003-0.012 0.027 0.013c0.458 1.331 0.998 2.476 1.646 3.549l-0.046-0.082c0.895 1.608 1.922 2.996 3.101 4.237l-0.008-0.009 0.040 0.053 0.053 0.040 0.080 0.080c1.236 1.174 2.628 2.205 4.136 3.053l0.104 0.054c1.76 0.96 2.829 1.413 3.469 1.6v0.013c0.187 0.053 0.357 0.080 0.531 0.080 0.57-0.043 1.079-0.274 1.471-0.631l-0.002 0.002c0.52-0.467 0.933-0.984 1.24-1.531v-0.013c0.307-0.573 0.2-1.121-0.24-1.495-0.845-0.742-1.782-1.421-2.781-2.007l-0.085-0.046c-0.68-0.373-1.373-0.147-1.653 0.227l-0.6 0.759c-0.307 0.373-0.867 0.32-0.867 0.32l-0.016 0.013c-4.16-1.067-5.267-5.279-5.267-5.279s-0.053-0.573 0.333-0.867l0.747-0.6c0.36-0.293 0.613-0.987 0.227-1.667-0.631-1.084-1.31-2.022-2.071-2.887l0.017 0.020c-0.166-0.204-0.399-0.349-0.665-0.399l-0.007-0.001zM16.459 7.839c-0.22 0.001-0.399 0.18-0.399 0.4s0.179 0.4 0.4 0.4c0 0 0.001 0 0.001 0h-0c1.388 0.025 2.636 0.607 3.532 1.532l0.001 0.001c0.75 0.825 1.209 1.926 1.209 3.134 0 0.103-0.003 0.205-0.010 0.306l0.001-0.014c0.001 0.22 0.18 0.399 0.4 0.399 0 0 0 0 0 0v0l0.013 0.016c0 0 0 0 0 0 0.221 0 0.4-0.179 0.4-0.4 0-0 0-0.001 0-0.001v0c0.040-1.587-0.453-2.92-1.427-3.987s-2.333-1.667-4.067-1.787c-0.008-0.001-0.018-0.001-0.028-0.001s-0.020 0-0.029 0.001l0.001-0zM17.112 9.997c-0.004-0-0.008-0-0.012-0-0.225 0-0.407 0.182-0.407 0.408 0 0.221 0.176 0.401 0.395 0.407h0.001c1.32 0.067 1.96 0.733 2.040 2.107 0.007 0.215 0.184 0.387 0.4 0.387 0 0 0 0 0 0h0.013c0.215-0.007 0.388-0.183 0.388-0.4 0-0.009-0-0.019-0.001-0.028l0 0.001c-0.093-1.787-1.067-2.788-2.8-2.881-0.002-0-0.005-0-0.008-0s-0.006 0-0.008 0h0z"></path>
</symbol>
<symbol id="facebook" viewBox="0 0 32 32">
<path fill="#afb1b8" style="fill: var(--color6, #afb1b8)" d="M21.328 5.312h2.923v-5.088c-1.232-0.143-2.66-0.224-4.108-0.224-0.052 0-0.104 0-0.156 0l0.008-0c-4.213 0-7.099 2.65-7.099 7.52v4.48h-4.646v5.688h4.646v14.312h5.699v-14.31h4.459l0.707-5.688h-5.168v-3.922c0-1.643 0.443-2.768 2.734-2.768z"></path>
</symbol>
<symbol id="instagram" viewBox="0 0 32 32">
<path fill="#afb1b8" style="fill: var(--color6, #afb1b8)" d="M31.968 9.408c-0.074-1.701-0.349-2.869-0.742-3.882-0.424-1.111-1.054-2.059-1.85-2.837l-0.001-0.001c-0.78-0.792-1.724-1.419-2.778-1.827l-0.054-0.018c-1.019-0.394-2.181-0.667-3.882-0.742-1.712-0.082-2.256-0.101-6.602-0.101-4.344 0-4.888 0.019-6.595 0.094-1.699 0.074-2.869 0.349-3.88 0.742-1.112 0.424-2.060 1.054-2.839 1.85l-0.001 0.001c-0.791 0.78-1.418 1.724-1.825 2.778l-0.018 0.054c-0.395 1.019-0.669 2.181-0.744 3.882-0.082 1.712-0.101 2.256-0.101 6.602 0 4.344 0.019 4.888 0.094 6.595 0.075 1.701 0.35 2.869 0.744 3.882 0.426 1.11 1.055 2.057 1.849 2.837l0.001 0.001c0.8 0.813 1.77 1.443 2.832 1.843 1.019 0.395 2.182 0.67 3.882 0.744 1.707 0.075 2.251 0.094 6.595 0.094 4.346 0 4.89-0.019 6.595-0.094 1.701-0.074 2.869-0.349 3.882-0.742 2.157-0.85 3.833-2.526 4.664-4.628l0.019-0.055c0.394-1.019 0.669-2.182 0.744-3.882 0.075-1.707 0.093-2.251 0.093-6.595s-0.006-4.888-0.080-6.595zM29.088 22.474c-0.070 1.563-0.333 2.406-0.55 2.97-0.552 1.399-1.64 2.486-3.004 3.024l-0.036 0.012c-0.56 0.219-1.411 0.482-2.968 0.55-1.688 0.075-2.194 0.094-6.464 0.094-4.269 0-4.782-0.019-6.464-0.094-1.563-0.069-2.406-0.331-2.97-0.55-0.721-0.269-1.334-0.676-1.836-1.192l-0.001-0.001c-0.517-0.503-0.924-1.117-1.184-1.803l-0.011-0.034c-0.218-0.563-0.48-1.413-0.549-2.97-0.075-1.688-0.094-2.195-0.094-6.464 0-4.27 0.019-4.784 0.094-6.464 0.069-1.563 0.331-2.406 0.549-2.97 0.269-0.722 0.678-1.337 1.198-1.837l0.002-0.002c0.504-0.517 1.119-0.923 1.806-1.182l0.034-0.011c0.56-0.219 1.411-0.48 2.968-0.55 1.688-0.074 2.195-0.093 6.464-0.093 4.275 0 4.782 0.019 6.464 0.093 1.563 0.069 2.406 0.331 2.97 0.55 0.693 0.256 1.325 0.662 1.837 1.194 0.531 0.52 0.938 1.144 1.195 1.84 0.218 0.56 0.48 1.411 0.549 2.968 0.075 1.688 0.094 2.194 0.094 6.464 0 4.269-0.019 4.768-0.094 6.458z"></path>
<path fill="#afb1b8" style="fill: var(--color6, #afb1b8)" d="M16.059 7.782c-4.539 0.002-8.218 3.682-8.219 8.221v0c0.091 4.471 3.737 8.060 8.221 8.060s8.13-3.589 8.221-8.052l0-0.009c-0.001-4.54-3.681-8.22-8.221-8.221h-0zM16.059 21.334c-2.945-0-5.332-2.388-5.332-5.333s2.388-5.333 5.333-5.333c0 0 0.001 0 0.001 0h-0c2.946 0 5.334 2.388 5.334 5.334s-2.388 5.334-5.334 5.334v0zM26.525 7.458c0 1.060-0.86 1.92-1.92 1.92s-1.92-0.86-1.92-1.92v0c0-1.060 0.86-1.92 1.92-1.92s1.92 0.86 1.92 1.92v0z"></path>
</symbol>
<symbol id="linkedin" viewBox="0 0 32 32">
<path fill="#afb1b8" style="fill: var(--color6, #afb1b8)" d="M31.992 32h0.008v-11.738c0-5.741-1.237-10.163-7.947-10.163-3.227 0-5.392 1.77-6.277 3.45h-0.093v-2.914h-6.365v21.363h6.627v-10.578c0-2.786 0.528-5.48 3.978-5.48 3.398 0 3.448 3.179 3.448 5.658v10.402h6.621zM0.528 10.635h6.635v21.365h-6.635v-21.365zM3.843 0c-2.123 0-3.843 1.721-3.843 3.843v0c0 2.12 1.722 3.878 3.843 3.878 2.12 0 3.842-1.757 3.842-3.878s-1.72-3.841-3.841-3.843h-0z"></path>
</symbol>
<symbol id="google-plus" viewBox="0 0 32 32">
<path d="M10.181 14.294v3.494h5.775c-0.231 1.5-1.744 4.394-5.775 4.394-3.475 0-6.313-2.881-6.313-6.431s2.838-6.431 6.313-6.431c1.981 0 3.3 0.844 4.056 1.569l2.762-2.662c-1.775-1.656-4.075-2.662-6.819-2.662-5.631 0.006-10.181 4.556-10.181 10.188s4.55 10.181 10.181 10.181c5.875 0 9.775-4.131 9.775-9.95 0-0.669-0.075-1.181-0.163-1.688h-9.613z"></path>
<path d="M32 14h-3v-3h-3v3h-3v3h3v3h3v-3h3z"></path>
</symbol>
<symbol id="whatsapp" viewBox="0 0 32 32">
<path d="M27.281 4.65c-2.994-3-6.975-4.65-11.219-4.65-8.738 0-15.85 7.112-15.85 15.856 0 2.794 0.731 5.525 2.119 7.925l-2.25 8.219 8.406-2.206c2.319 1.262 4.925 1.931 7.575 1.931h0.006c0 0 0 0 0 0 8.738 0 15.856-7.113 15.856-15.856 0-4.238-1.65-8.219-4.644-11.219zM16.069 29.050v0c-2.369 0-4.688-0.637-6.713-1.837l-0.481-0.288-4.987 1.306 1.331-4.863-0.313-0.5c-1.325-2.094-2.019-4.519-2.019-7.012 0-7.269 5.912-13.181 13.188-13.181 3.519 0 6.831 1.375 9.319 3.862 2.488 2.494 3.856 5.8 3.856 9.325-0.006 7.275-5.919 13.188-13.181 13.188zM23.294 19.175c-0.394-0.2-2.344-1.156-2.706-1.288s-0.625-0.2-0.894 0.2c-0.262 0.394-1.025 1.288-1.256 1.556-0.231 0.262-0.462 0.3-0.856 0.1s-1.675-0.619-3.188-1.969c-1.175-1.050-1.975-2.35-2.206-2.744s-0.025-0.613 0.175-0.806c0.181-0.175 0.394-0.463 0.594-0.694s0.262-0.394 0.394-0.662c0.131-0.262 0.069-0.494-0.031-0.694s-0.894-2.15-1.219-2.944c-0.319-0.775-0.65-0.669-0.894-0.681-0.231-0.012-0.494-0.012-0.756-0.012s-0.694 0.1-1.056 0.494c-0.363 0.394-1.387 1.356-1.387 3.306s1.419 3.831 1.619 4.1c0.2 0.262 2.794 4.269 6.769 5.981 0.944 0.406 1.681 0.65 2.256 0.837 0.95 0.3 1.813 0.256 2.494 0.156 0.762-0.113 2.344-0.956 2.675-1.881s0.331-1.719 0.231-1.881c-0.094-0.175-0.356-0.275-0.756-0.475z"></path>
</symbol>
<symbol id="telegram" viewBox="0 0 32 32">
<path d="M16 0c-8.838 0-16 7.162-16 16s7.162 16 16 16 16-7.163 16-16-7.163-16-16-16zM23.863 10.969l-2.625 12.369c-0.181 0.881-0.712 1.087-1.45 0.681l-4-2.956-1.919 1.869c-0.225 0.219-0.4 0.4-0.8 0.4-0.519 0-0.431-0.194-0.606-0.688l-1.363-4.475-3.956-1.231c-0.856-0.262-0.862-0.85 0.194-1.269l15.412-5.95c0.7-0.319 1.381 0.169 1.113 1.25z"></path>
</symbol>
<symbol id="github" viewBox="0 0 32 32">
<path d="M16 0.395c-8.836 0-16 7.163-16 16 0 7.069 4.585 13.067 10.942 15.182 0.8 0.148 1.094-0.347 1.094-0.77 0-0.381-0.015-1.642-0.022-2.979-4.452 0.968-5.391-1.888-5.391-1.888-0.728-1.849-1.776-2.341-1.776-2.341-1.452-0.993 0.11-0.973 0.11-0.973 1.606 0.113 2.452 1.649 2.452 1.649 1.427 2.446 3.743 1.739 4.656 1.33 0.143-1.034 0.558-1.74 1.016-2.14-3.554-0.404-7.29-1.777-7.29-7.907 0-1.747 0.625-3.174 1.649-4.295-0.166-0.403-0.714-2.030 0.155-4.234 0 0 1.344-0.43 4.401 1.64 1.276-0.355 2.645-0.532 4.005-0.539 1.359 0.006 2.729 0.184 4.008 0.539 3.054-2.070 4.395-1.64 4.395-1.64 0.871 2.204 0.323 3.831 0.157 4.234 1.026 1.12 1.647 2.548 1.647 4.295 0 6.145-3.743 7.498-7.306 7.895 0.574 0.497 1.085 1.47 1.085 2.963 0 2.141-0.019 3.864-0.019 4.391 0 0.426 0.288 0.925 1.099 0.768 6.354-2.118 10.933-8.113 10.933-15.18 0-8.837-7.164-16-16-16z"></path>
</symbol>
<symbol id="linkedin2" viewBox="0 0 32 32">
<path d="M12 12h5.535v2.837h0.079c0.77-1.381 2.655-2.837 5.464-2.837 5.842 0 6.922 3.637 6.922 8.367v9.633h-5.769v-8.54c0-2.037-0.042-4.657-3.001-4.657-3.005 0-3.463 2.218-3.463 4.509v8.688h-5.767v-18z"></path>
<path d="M2 12h6v18h-6v-18z"></path>
<path d="M8 7c0 1.657-1.343 3-3 3s-3-1.343-3-3c0-1.657 1.343-3 3-3s3 1.343 3 3z"></path>
</symbol>
</defs>
</svg>
